<mxfile host="app.diagrams.net" agent="Mozilla/5.0 (X11; Linux x86_64) AppleWebKit/537.36 (KHTML, like Gecko) Chrome/127.0.0.0 Safari/537.36" version="24.7.8" pages="2">
  <diagram name="Page-1" id="otLF4_SefwW1CnSS6BB0">
    <mxGraphModel dx="1335" dy="1761" grid="1" gridSize="10" guides="1" tooltips="1" connect="1" arrows="1" fold="1" page="1" pageScale="1" pageWidth="850" pageHeight="1100" math="0" shadow="0">
      <root>
        <mxCell id="0" />
        <mxCell id="1" parent="0" />
        <mxCell id="NUGxYGxq6zbkgMIotOkc-1" value="&lt;p style=&quot;box-sizing: border-box; margin-top: 0px; margin-bottom: 1rem; color: rgb(10, 208, 0); font-family: monospace; font-size: medium; text-align: start; background-color: rgb(1, 0, 14);&quot;&gt;&lt;span style=&quot;box-sizing: border-box;&quot; class=&quot;underline&quot;&gt;Target Section:&lt;/span&gt;&lt;/p&gt;&lt;p style=&quot;box-sizing: border-box; margin-top: 0px; margin-bottom: 1rem; color: rgb(10, 208, 0); font-family: monospace; font-size: medium; text-align: start; background-color: rgb(1, 0, 14);&quot;&gt;T1&lt;br style=&quot;box-sizing: border-box;&quot;&gt;Hostname: networking-ctfd-2.server.vta&lt;br style=&quot;box-sizing: border-box;&quot;&gt;Record Type: TXT&lt;br style=&quot;box-sizing: border-box;&quot;&gt;IP: UNKNOWN&lt;br style=&quot;box-sizing: border-box;&quot;&gt;Ports: 53&lt;br style=&quot;box-sizing: border-box;&quot;&gt;Action: interrogate DNS records&lt;br style=&quot;box-sizing: border-box;&quot;&gt;&lt;/p&gt;&lt;p style=&quot;box-sizing: border-box; margin-top: 0px; margin-bottom: 1rem; color: rgb(10, 208, 0); font-family: monospace; font-size: medium; text-align: start; background-color: rgb(1, 0, 14);&quot;&gt;Red Boundry Router&lt;br style=&quot;box-sizing: border-box;&quot;&gt;Hostname:&lt;br style=&quot;box-sizing: border-box;&quot;&gt;IP: 172.16.120.1&lt;br style=&quot;box-sizing: border-box;&quot;&gt;Ports: 22&lt;br style=&quot;box-sizing: border-box;&quot;&gt;Username:&amp;nbsp;&lt;code style=&quot;box-sizing: border-box; font-family: SFMono-Regular, Menlo, Monaco, Consolas, &amp;quot;Liberation Mono&amp;quot;, &amp;quot;Courier New&amp;quot;, monospace; font-size: 14px; color: rgb(232, 62, 140); word-break: break-word;&quot;&gt;vyos&lt;/code&gt;&lt;br style=&quot;box-sizing: border-box;&quot;&gt;Password:&amp;nbsp;&lt;code style=&quot;box-sizing: border-box; font-family: SFMono-Regular, Menlo, Monaco, Consolas, &amp;quot;Liberation Mono&amp;quot;, &amp;quot;Courier New&amp;quot;, monospace; font-size: 14px; color: rgb(232, 62, 140); word-break: break-word;&quot;&gt;password&lt;/code&gt;&lt;br style=&quot;box-sizing: border-box;&quot;&gt;Action: Use as start point and Perform Passive/Active Reconnaissance&lt;br style=&quot;box-sizing: border-box;&quot;&gt;&lt;/p&gt;&lt;p style=&quot;box-sizing: border-box; margin-top: 0px; margin-bottom: 1rem; color: rgb(10, 208, 0); font-family: monospace; font-size: medium; text-align: start; background-color: rgb(1, 0, 14);&quot;&gt;T2&lt;br style=&quot;box-sizing: border-box;&quot;&gt;Hostname: UNKNOWN&lt;br style=&quot;box-sizing: border-box;&quot;&gt;IP: 172.16.182.110&lt;br style=&quot;box-sizing: border-box;&quot;&gt;Action: Perform Active Reconnaissance&lt;br style=&quot;box-sizing: border-box;&quot;&gt;&lt;/p&gt;&lt;p style=&quot;box-sizing: border-box; margin-top: 0px; margin-bottom: 1rem; color: rgb(10, 208, 0); font-family: monospace; font-size: medium; text-align: start; background-color: rgb(1, 0, 14);&quot;&gt;T3&lt;br style=&quot;box-sizing: border-box;&quot;&gt;Hostname: UNKNOWN&lt;br style=&quot;box-sizing: border-box;&quot;&gt;IP: 172.16.140.33&lt;br style=&quot;box-sizing: border-box;&quot;&gt;Action: Perform Active Reconnaissance&lt;br style=&quot;box-sizing: border-box;&quot;&gt;&lt;/p&gt;&lt;p style=&quot;box-sizing: border-box; margin-top: 0px; margin-bottom: 1rem; color: rgb(10, 208, 0); font-family: monospace; font-size: medium; text-align: start; background-color: rgb(1, 0, 14);&quot;&gt;T4&lt;br style=&quot;box-sizing: border-box;&quot;&gt;Hostname: UNKNOWN&lt;br style=&quot;box-sizing: border-box;&quot;&gt;IP: 172.16.182.106&lt;br style=&quot;box-sizing: border-box;&quot;&gt;Action: Perform Active Reconnaissance&lt;br style=&quot;box-sizing: border-box;&quot;&gt;&lt;/p&gt;&lt;p style=&quot;box-sizing: border-box; margin-top: 0px; margin-bottom: 1rem; color: rgb(10, 208, 0); font-family: monospace; font-size: medium; text-align: start; background-color: rgb(1, 0, 14);&quot;&gt;T5&lt;br style=&quot;box-sizing: border-box;&quot;&gt;Hostname: UNKNOWN&lt;br style=&quot;box-sizing: border-box;&quot;&gt;IP: 172.16.182.114&lt;br style=&quot;box-sizing: border-box;&quot;&gt;Action: Perform Active Reconnaissance&lt;br style=&quot;box-sizing: border-box;&quot;&gt;&lt;/p&gt;&lt;p style=&quot;box-sizing: border-box; margin-top: 0px; margin-bottom: 1rem; color: rgb(10, 208, 0); font-family: monospace; font-size: medium; text-align: start; background-color: rgb(1, 0, 14);&quot;&gt;T6&lt;br style=&quot;box-sizing: border-box;&quot;&gt;Hostname: UNKNOWN&lt;br style=&quot;box-sizing: border-box;&quot;&gt;IP: 172.16.182.118&lt;br style=&quot;box-sizing: border-box;&quot;&gt;Action: Perform Active Reconnaissance&lt;br style=&quot;box-sizing: border-box;&quot;&gt;&lt;/p&gt;&lt;p style=&quot;box-sizing: border-box; margin-top: 0px; margin-bottom: 1rem; color: rgb(10, 208, 0); font-family: monospace; font-size: medium; text-align: start; background-color: rgb(1, 0, 14);&quot;&gt;T7&lt;br style=&quot;box-sizing: border-box;&quot;&gt;Hostname: UNKNOWN&lt;br style=&quot;box-sizing: border-box;&quot;&gt;IP: 172.16.140.35&lt;br style=&quot;box-sizing: border-box;&quot;&gt;Action: Perform Active Reconnaissance&lt;/p&gt;" style="whiteSpace=wrap;html=1;aspect=fixed;" vertex="1" parent="1">
          <mxGeometry x="340" y="-20" width="740" height="740" as="geometry" />
        </mxCell>
        <mxCell id="57MkeaI1bD_G6PDfh43I-14" style="edgeStyle=orthogonalEdgeStyle;rounded=0;orthogonalLoop=1;jettySize=auto;html=1;exitX=1;exitY=0.5;exitDx=0;exitDy=0;" edge="1" parent="1" source="57MkeaI1bD_G6PDfh43I-3">
          <mxGeometry relative="1" as="geometry">
            <mxPoint x="1520" y="529.8333333333335" as="targetPoint" />
          </mxGeometry>
        </mxCell>
        <mxCell id="57MkeaI1bD_G6PDfh43I-3" value="&lt;div&gt;&lt;font style=&quot;font-size: 10px;&quot;&gt;Start *&lt;/font&gt;&lt;/div&gt;&lt;div&gt;&lt;font style=&quot;font-size: 10px;&quot;&gt;HN:&lt;/font&gt;&lt;/div&gt;&lt;font style=&quot;font-size: 10px;&quot;&gt;172.16.120.1.&lt;/font&gt;&lt;div&gt;&lt;font style=&quot;font-size: 10px;&quot;&gt;:22, 179&lt;/font&gt;&lt;/div&gt;&lt;div&gt;&lt;span style=&quot;font-size: 10px; background-color: initial;&quot;&gt;User:&amp;nbsp;&lt;/span&gt;&lt;span style=&quot;font-size: 10px; background-color: initial;&quot;&gt;vyos&lt;/span&gt;&lt;/div&gt;&lt;div&gt;&lt;span style=&quot;font-size: 10px;&quot;&gt;Pass:&amp;nbsp;&lt;/span&gt;&lt;span style=&quot;font-size: 10px; background-color: initial;&quot;&gt;password&lt;/span&gt;&lt;/div&gt;" style="whiteSpace=wrap;html=1;aspect=fixed;" vertex="1" parent="1">
          <mxGeometry x="1200" y="480" width="100" height="100" as="geometry" />
        </mxCell>
        <mxCell id="57MkeaI1bD_G6PDfh43I-4" value="&lt;div&gt;&lt;font style=&quot;font-size: 10px;&quot;&gt;HN:&lt;/font&gt;&lt;/div&gt;&lt;font style=&quot;font-size: 10px;&quot;&gt;172.16.182.110&lt;/font&gt;&lt;div&gt;&lt;font style=&quot;font-size: 10px;&quot;&gt;&lt;br&gt;&lt;/font&gt;&lt;/div&gt;" style="whiteSpace=wrap;html=1;aspect=fixed;" vertex="1" parent="1">
          <mxGeometry x="1200" y="260" width="100" height="100" as="geometry" />
        </mxCell>
        <mxCell id="57MkeaI1bD_G6PDfh43I-5" value="&lt;div&gt;&lt;font style=&quot;font-size: 10px;&quot;&gt;HN:&lt;/font&gt;&lt;/div&gt;&lt;font style=&quot;font-size: 10px;&quot;&gt;172.16.140.33&lt;/font&gt;&lt;div&gt;&lt;font style=&quot;font-size: 10px;&quot;&gt;&lt;br&gt;&lt;/font&gt;&lt;/div&gt;" style="whiteSpace=wrap;html=1;aspect=fixed;" vertex="1" parent="1">
          <mxGeometry x="1320" y="260" width="100" height="100" as="geometry" />
        </mxCell>
        <mxCell id="57MkeaI1bD_G6PDfh43I-6" value="&lt;div&gt;&lt;font style=&quot;font-size: 10px;&quot;&gt;HN:&lt;/font&gt;&lt;/div&gt;&lt;font style=&quot;font-size: 10px;&quot;&gt;172.16.182.106&lt;/font&gt;&lt;div&gt;&lt;font style=&quot;font-size: 10px;&quot;&gt;&lt;br&gt;&lt;/font&gt;&lt;/div&gt;" style="whiteSpace=wrap;html=1;aspect=fixed;" vertex="1" parent="1">
          <mxGeometry x="1440" y="260" width="100" height="100" as="geometry" />
        </mxCell>
        <mxCell id="57MkeaI1bD_G6PDfh43I-7" value="&lt;div&gt;&lt;font style=&quot;font-size: 10px;&quot;&gt;HN:&lt;/font&gt;&lt;/div&gt;&lt;font style=&quot;font-size: 10px;&quot;&gt;172.16.182.114&lt;/font&gt;" style="whiteSpace=wrap;html=1;aspect=fixed;" vertex="1" parent="1">
          <mxGeometry x="1560" y="260" width="100" height="100" as="geometry" />
        </mxCell>
        <mxCell id="57MkeaI1bD_G6PDfh43I-9" value="&lt;div&gt;&lt;font style=&quot;font-size: 10px;&quot;&gt;HN:&lt;/font&gt;&lt;/div&gt;&lt;font style=&quot;font-size: 10px;&quot;&gt;172.16.182.118&lt;/font&gt;" style="whiteSpace=wrap;html=1;aspect=fixed;" vertex="1" parent="1">
          <mxGeometry x="1700" y="260" width="100" height="100" as="geometry" />
        </mxCell>
        <mxCell id="57MkeaI1bD_G6PDfh43I-10" value="&lt;div&gt;&lt;font style=&quot;font-size: 10px;&quot;&gt;HN:&lt;/font&gt;&lt;/div&gt;&lt;font style=&quot;font-size: 10px;&quot;&gt;172.16.140.35&lt;/font&gt;" style="whiteSpace=wrap;html=1;aspect=fixed;" vertex="1" parent="1">
          <mxGeometry x="1175" y="110" width="100" height="100" as="geometry" />
        </mxCell>
        <mxCell id="57MkeaI1bD_G6PDfh43I-11" value="&lt;div&gt;&lt;font style=&quot;font-size: 10px;&quot;&gt;HN:&lt;/font&gt;&lt;/div&gt;&lt;font style=&quot;font-size: 10px;&quot;&gt;networking-ctfd-2.server.vta&lt;/font&gt;&lt;div&gt;&lt;span style=&quot;font-size: 10px;&quot;&gt;10.50.23.63&lt;br&gt;&lt;/span&gt;&lt;div&gt;&lt;font style=&quot;font-size: 10px;&quot;&gt;:53&lt;/font&gt;&lt;/div&gt;&lt;/div&gt;" style="whiteSpace=wrap;html=1;aspect=fixed;" vertex="1" parent="1">
          <mxGeometry x="1910" y="340" width="100" height="100" as="geometry" />
        </mxCell>
        <mxCell id="57MkeaI1bD_G6PDfh43I-12" value="&lt;p style=&quot;box-sizing: border-box; margin-top: 0px; margin-bottom: 1rem; color: rgb(10, 208, 0); font-family: monospace; font-size: medium; font-style: normal; font-variant-ligatures: normal; font-variant-caps: normal; font-weight: 400; letter-spacing: normal; orphans: 2; text-align: start; text-indent: 0px; text-transform: none; widows: 2; word-spacing: 0px; -webkit-text-stroke-width: 0px; white-space: normal; background-color: rgb(1, 0, 14); text-decoration-thickness: initial; text-decoration-style: initial; text-decoration-color: initial;&quot;&gt;&lt;strong style=&quot;box-sizing: border-box; font-weight: bolder;&quot;&gt;Gathered Intelligence: Credentials&lt;/strong&gt;&lt;br style=&quot;box-sizing: border-box;&quot;&gt;&lt;code style=&quot;box-sizing: border-box; font-family: SFMono-Regular, Menlo, Monaco, Consolas, &amp;quot;Liberation Mono&amp;quot;, &amp;quot;Courier New&amp;quot;, monospace; font-size: 14px; color: rgb(232, 62, 140); word-break: break-word;&quot;&gt;netX_studentX:passwordX&lt;/code&gt;&lt;br style=&quot;box-sizing: border-box;&quot;&gt;&lt;code style=&quot;box-sizing: border-box; font-family: SFMono-Regular, Menlo, Monaco, Consolas, &amp;quot;Liberation Mono&amp;quot;, &amp;quot;Courier New&amp;quot;, monospace; font-size: 14px; color: rgb(232, 62, 140); word-break: break-word;&quot;&gt;vyos:password&lt;/code&gt;&lt;br style=&quot;box-sizing: border-box;&quot;&gt;&lt;/p&gt;&lt;br class=&quot;Apple-interchange-newline&quot;&gt;" style="whiteSpace=wrap;html=1;aspect=fixed;" vertex="1" parent="1">
          <mxGeometry x="1080" y="-150" width="200" height="200" as="geometry" />
        </mxCell>
        <mxCell id="57MkeaI1bD_G6PDfh43I-16" value="" style="endArrow=none;html=1;rounded=0;" edge="1" parent="1">
          <mxGeometry width="50" height="50" relative="1" as="geometry">
            <mxPoint x="1520" y="750" as="sourcePoint" />
            <mxPoint x="1520" y="480" as="targetPoint" />
          </mxGeometry>
        </mxCell>
        <mxCell id="57MkeaI1bD_G6PDfh43I-18" value="" style="endArrow=none;html=1;rounded=0;" edge="1" parent="1">
          <mxGeometry width="50" height="50" relative="1" as="geometry">
            <mxPoint x="1520" y="480" as="sourcePoint" />
            <mxPoint x="1680" y="480" as="targetPoint" />
          </mxGeometry>
        </mxCell>
        <mxCell id="57MkeaI1bD_G6PDfh43I-27" value="eth0" style="edgeLabel;html=1;align=center;verticalAlign=middle;resizable=0;points=[];" vertex="1" connectable="0" parent="57MkeaI1bD_G6PDfh43I-18">
          <mxGeometry x="0.0938" y="1" relative="1" as="geometry">
            <mxPoint as="offset" />
          </mxGeometry>
        </mxCell>
        <mxCell id="57MkeaI1bD_G6PDfh43I-19" value="" style="endArrow=none;html=1;rounded=0;" edge="1" parent="1">
          <mxGeometry width="50" height="50" relative="1" as="geometry">
            <mxPoint x="1520" y="600" as="sourcePoint" />
            <mxPoint x="1680" y="600" as="targetPoint" />
          </mxGeometry>
        </mxCell>
        <mxCell id="57MkeaI1bD_G6PDfh43I-28" value="eth1" style="edgeLabel;html=1;align=center;verticalAlign=middle;resizable=0;points=[];" vertex="1" connectable="0" parent="57MkeaI1bD_G6PDfh43I-19">
          <mxGeometry x="0.1771" relative="1" as="geometry">
            <mxPoint as="offset" />
          </mxGeometry>
        </mxCell>
        <mxCell id="57MkeaI1bD_G6PDfh43I-20" value="" style="endArrow=none;html=1;rounded=0;" edge="1" parent="1">
          <mxGeometry width="50" height="50" relative="1" as="geometry">
            <mxPoint x="1520" y="750" as="sourcePoint" />
            <mxPoint x="1680" y="750" as="targetPoint" />
          </mxGeometry>
        </mxCell>
        <mxCell id="57MkeaI1bD_G6PDfh43I-29" value="eth2" style="edgeLabel;html=1;align=center;verticalAlign=middle;resizable=0;points=[];" vertex="1" connectable="0" parent="57MkeaI1bD_G6PDfh43I-20">
          <mxGeometry x="0.1354" y="-1" relative="1" as="geometry">
            <mxPoint as="offset" />
          </mxGeometry>
        </mxCell>
        <mxCell id="57MkeaI1bD_G6PDfh43I-24" value="INTERNET&lt;div&gt;172.16.120.1/29&lt;br&gt;&lt;/div&gt;" style="rounded=0;whiteSpace=wrap;html=1;" vertex="1" parent="1">
          <mxGeometry x="1680" y="450" width="120" height="60" as="geometry" />
        </mxCell>
        <mxCell id="57MkeaI1bD_G6PDfh43I-25" value="REDNET&lt;div&gt;172.16.120.10/29&lt;br&gt;&lt;/div&gt;" style="rounded=0;whiteSpace=wrap;html=1;" vertex="1" parent="1">
          <mxGeometry x="1680" y="580" width="120" height="60" as="geometry" />
        </mxCell>
        <mxCell id="57MkeaI1bD_G6PDfh43I-26" value="DMZ&lt;div&gt;172.16.101.30/27&lt;/div&gt;" style="rounded=0;whiteSpace=wrap;html=1;" vertex="1" parent="1">
          <mxGeometry x="1680" y="730" width="120" height="60" as="geometry" />
        </mxCell>
      </root>
    </mxGraphModel>
  </diagram>
  <diagram id="2BFd8QHLEVh2_qZyGo-f" name="Page-2">
    <mxGraphModel grid="1" page="1" gridSize="10" guides="1" tooltips="1" connect="1" arrows="1" fold="1" pageScale="1" pageWidth="850" pageHeight="1100" math="0" shadow="0">
      <root>
        <mxCell id="0" />
        <mxCell id="1" parent="0" />
      </root>
    </mxGraphModel>
  </diagram>
</mxfile>
